<svg width="18" height="18" viewBox="0 0 18 18" fill="none" xmlns="http://www.w3.org/2000/svg">
<g id="Communication / Chat_Circle">
<path id="Vector" d="M5.63232 14.8513C6.62344 15.4229 7.7734 15.75 8.99973 15.75C12.7277 15.75 15.75 12.7279 15.75 9C15.75 5.27208 12.7279 2.25 9 2.25C5.27208 2.25 2.25 5.27208 2.25 9C2.25 10.2263 2.57703 11.3763 3.14864 12.3674L3.15086 12.3712C3.20586 12.4666 3.23359 12.5147 3.24616 12.5601C3.258 12.603 3.26131 12.6415 3.25828 12.6859C3.25502 12.7336 3.23895 12.783 3.20601 12.8818L2.62939 14.6117L2.62867 14.614C2.50701 14.9789 2.44618 15.1614 2.48954 15.283C2.52734 15.389 2.61126 15.4727 2.71729 15.5105C2.83861 15.5538 3.02028 15.4932 3.38366 15.3721L3.38818 15.3704L5.11804 14.7938C5.21653 14.761 5.2666 14.7443 5.31419 14.7411C5.35856 14.7381 5.39683 14.7421 5.4397 14.7539C5.48526 14.7665 5.53338 14.7942 5.62923 14.8495L5.63232 14.8513Z" stroke="#A4A4A4" stroke-linecap="round" stroke-linejoin="round"/>
</g>
</svg>
